<svg width="44" height="64" viewBox="0 0 44 64" fill="none" xmlns="http://www.w3.org/2000/svg">
<path d="M16.3529 0.678014C8.50033 2.7293 2.28238 9.20365 0.391357 17.2485C-0.28172 20.1011 -0.0573611 25.5178 0.840075 28.9472C2.69905 35.9024 7.31443 44.7806 13.9811 54.2998C17.6349 59.5242 21.4491 64.2998 21.9619 64.2998C22.4426 64.2998 27.667 57.3126 31.1926 51.9601C40.6478 37.6011 44.8144 26.928 43.8529 19.4921C43.2119 14.2678 41.2247 10.2613 37.4426 6.44724C32.026 0.998526 23.7888 -1.24506 16.3529 0.678014ZM18.6926 14.6203C19.3337 14.8767 20.2632 15.5498 20.776 16.1267L21.7375 17.1524L22.6991 16.1267C26.8657 11.5754 34.6542 15.5178 33.7888 21.7357C33.4042 24.7165 31.0324 27.9216 25.3914 33.2101L21.7375 36.6395L18.1798 33.3062C12.5708 28.0819 10.0708 24.7165 9.68623 21.7357C9.01315 16.7998 14.1734 12.6972 18.6926 14.6203Z" fill="#805AD5"/>
</svg>
