<?xml version="1.0" standalone="no"?>
<!DOCTYPE svg PUBLIC "-//W3C//DTD SVG 20010904//EN"
 "http://www.w3.org/TR/2001/REC-SVG-20010904/DTD/svg10.dtd">
<svg version="1.0" xmlns="http://www.w3.org/2000/svg"
 width="100pt" height="100pt" viewBox="0 0 416.000000 416.000000"
 preserveAspectRatio="xMidYMid meet">

<g transform="translate(0.000000,416.000000) scale(0.100000,-0.100000)"
fill="#805AD5" stroke="none">
<path d="M1912 3100 c-245 -64 -439 -266 -498 -517 -21 -89 -14 -258 14 -365
58 -217 202 -494 410 -791 114 -163 233 -312 249 -312 15 0 178 218 288 385
295 448 425 781 395 1013 -20 163 -82 288 -200 407 -169 170 -426 240 -658
180z m73 -435 c20 -8 49 -29 65 -47 l30 -32 30 32 c130 142 373 19 346 -175
-12 -93 -86 -193 -262 -358 l-114 -107 -111 104 c-175 163 -253 268 -265 361
-21 154 140 282 281 222z"/>
</g>
</svg>
